<?xml version="1.0" standalone="no"?>
<!DOCTYPE svg PUBLIC "-//W3C//DTD SVG 20010904//EN"
 "http://www.w3.org/TR/2001/REC-SVG-20010904/DTD/svg10.dtd">
<svg version="1.0" xmlns="http://www.w3.org/2000/svg"
 width="100.000000pt" height="100.000000pt" viewBox="0 0 100.000000 100.000000"
 preserveAspectRatio="xMidYMid meet">

<g transform="translate(0.000000,100.000000) scale(0.100000,-0.100000)"
fill="#000000" stroke="none">
<path d="M432 969 c-72 -22 -132 -111 -132 -196 l0 -33 -80 0 c-48 0 -80 -4
-80 -10 0 -6 -18 -167 -40 -357 -22 -191 -40 -353 -40 -360 0 -10 91 -13 440
-13 349 0 440 3 440 13 0 7 -18 169 -40 360 -22 190 -40 351 -40 357 0 6 -32
10 -79 10 l-78 0 -6 55 c-11 104 -79 173 -178 180 -30 3 -69 0 -87 -6z m156
-56 c44 -33 65 -69 70 -122 l5 -51 -162 0 -161 0 0 34 c0 67 36 125 95 152 40
19 119 12 153 -13z m-288 -233 c0 -11 -6 -29 -12 -40 -17 -26 0 -55 32 -55 32
0 49 29 32 55 -6 11 -12 29 -12 40 0 19 6 20 160 20 154 0 160 -1 160 -20 0
-11 -6 -29 -12 -40 -17 -26 0 -55 32 -55 32 0 49 29 32 55 -6 11 -12 29 -12
40 0 18 7 20 60 20 71 0 59 40 100 -335 17 -148 32 -282 35 -297 l5 -28 -400
0 -399 0 4 28 c3 15 18 149 35 297 41 375 29 335 100 335 53 0 60 -2 60 -20z"/>
</g>
</svg>
